<svg xmlns="http://www.w3.org/2000/svg" width="375" viewBox="0 0 375 112.5" height="112.5" version="1.0"><defs><clipPath id="a"><path d="M 19 34 L 27 34 L 27 40 L 19 40 Z M 19 34"/></clipPath><clipPath id="b"><path d="M 24.027344 16.449219 L 72.554688 41.273438 L 47.730469 89.800781 L -0.796875 64.976562 Z M 24.027344 16.449219"/></clipPath><clipPath id="c"><path d="M 24.027344 16.449219 L 72.554688 41.273438 L 47.730469 89.800781 L -0.796875 64.976562 Z M 24.027344 16.449219"/></clipPath><clipPath id="d"><path d="M 53 50 L 59 50 L 59 59 L 53 59 Z M 53 50"/></clipPath><clipPath id="e"><path d="M 24.027344 16.449219 L 72.554688 41.273438 L 47.730469 89.800781 L -0.796875 64.976562 Z M 24.027344 16.449219"/></clipPath><clipPath id="f"><path d="M 24.027344 16.449219 L 72.554688 41.273438 L 47.730469 89.800781 L -0.796875 64.976562 Z M 24.027344 16.449219"/></clipPath><clipPath id="g"><path d="M 7 63 L 25 63 L 25 72 L 7 72 Z M 7 63"/></clipPath><clipPath id="h"><path d="M 24.027344 16.449219 L 72.554688 41.273438 L 47.730469 89.800781 L -0.796875 64.976562 Z M 24.027344 16.449219"/></clipPath><clipPath id="i"><path d="M 24.027344 16.449219 L 72.554688 41.273438 L 47.730469 89.800781 L -0.796875 64.976562 Z M 24.027344 16.449219"/></clipPath><clipPath id="j"><path d="M 28 68 L 42 68 L 42 85 L 28 85 Z M 28 68"/></clipPath><clipPath id="k"><path d="M 24.027344 16.449219 L 72.554688 41.273438 L 47.730469 89.800781 L -0.796875 64.976562 Z M 24.027344 16.449219"/></clipPath><clipPath id="l"><path d="M 24.027344 16.449219 L 72.554688 41.273438 L 47.730469 89.800781 L -0.796875 64.976562 Z M 24.027344 16.449219"/></clipPath><clipPath id="m"><path d="M 10 38 L 37 38 L 37 49 L 10 49 Z M 10 38"/></clipPath><clipPath id="n"><path d="M 24.027344 16.449219 L 72.554688 41.273438 L 47.730469 89.800781 L -0.796875 64.976562 Z M 24.027344 16.449219"/></clipPath><clipPath id="o"><path d="M 24.027344 16.449219 L 72.554688 41.273438 L 47.730469 89.800781 L -0.796875 64.976562 Z M 24.027344 16.449219"/></clipPath><clipPath id="p"><path d="M 42 43 L 61 43 L 61 70 L 42 70 Z M 42 43"/></clipPath><clipPath id="q"><path d="M 24.027344 16.449219 L 72.554688 41.273438 L 47.730469 89.800781 L -0.796875 64.976562 Z M 24.027344 16.449219"/></clipPath><clipPath id="r"><path d="M 24.027344 16.449219 L 72.554688 41.273438 L 47.730469 89.800781 L -0.796875 64.976562 Z M 24.027344 16.449219"/></clipPath><clipPath id="s"><path d="M 22 29 L 51 29 L 51 78 L 22 78 Z M 22 29"/></clipPath><clipPath id="t"><path d="M 24.027344 16.449219 L 72.554688 41.273438 L 47.730469 89.800781 L -0.796875 64.976562 Z M 24.027344 16.449219"/></clipPath><clipPath id="u"><path d="M 24.027344 16.449219 L 72.554688 41.273438 L 47.730469 89.800781 L -0.796875 64.976562 Z M 24.027344 16.449219"/></clipPath><clipPath id="v"><path d="M 37 38 L 44 38 L 44 49 L 37 49 Z M 37 38"/></clipPath><clipPath id="w"><path d="M 24.027344 16.449219 L 72.554688 41.273438 L 47.730469 89.800781 L -0.796875 64.976562 Z M 24.027344 16.449219"/></clipPath><clipPath id="x"><path d="M 24.027344 16.449219 L 72.554688 41.273438 L 47.730469 89.800781 L -0.796875 64.976562 Z M 24.027344 16.449219"/></clipPath><clipPath id="y"><path d="M 33 49 L 39 49 L 39 58 L 33 58 Z M 33 49"/></clipPath><clipPath id="z"><path d="M 24.027344 16.449219 L 72.554688 41.273438 L 47.730469 89.800781 L -0.796875 64.976562 Z M 24.027344 16.449219"/></clipPath><clipPath id="A"><path d="M 24.027344 16.449219 L 72.554688 41.273438 L 47.730469 89.800781 L -0.796875 64.976562 Z M 24.027344 16.449219"/></clipPath><clipPath id="B"><path d="M 30 58 L 34 58 L 34 63 L 30 63 Z M 30 58"/></clipPath><clipPath id="C"><path d="M 24.027344 16.449219 L 72.554688 41.273438 L 47.730469 89.800781 L -0.796875 64.976562 Z M 24.027344 16.449219"/></clipPath><clipPath id="D"><path d="M 24.027344 16.449219 L 72.554688 41.273438 L 47.730469 89.800781 L -0.796875 64.976562 Z M 24.027344 16.449219"/></clipPath><clipPath id="E"><path d="M 27 37 L 31 37 L 31 43 L 27 43 Z M 27 37"/></clipPath><clipPath id="F"><path d="M 24.027344 16.449219 L 72.554688 41.273438 L 47.730469 89.800781 L -0.796875 64.976562 Z M 24.027344 16.449219"/></clipPath><clipPath id="G"><path d="M 24.027344 16.449219 L 72.554688 41.273438 L 47.730469 89.800781 L -0.796875 64.976562 Z M 24.027344 16.449219"/></clipPath><clipPath id="H"><path d="M 23 37 L 27 37 L 27 43 L 23 43 Z M 23 37"/></clipPath><clipPath id="I"><path d="M 24.027344 16.449219 L 72.554688 41.273438 L 47.730469 89.800781 L -0.796875 64.976562 Z M 24.027344 16.449219"/></clipPath><clipPath id="J"><path d="M 24.027344 16.449219 L 72.554688 41.273438 L 47.730469 89.800781 L -0.796875 64.976562 Z M 24.027344 16.449219"/></clipPath><clipPath id="K"><path d="M 17 37 L 21 37 L 21 43 L 17 43 Z M 17 37"/></clipPath><clipPath id="L"><path d="M 24.027344 16.449219 L 72.554688 41.273438 L 47.730469 89.800781 L -0.796875 64.976562 Z M 24.027344 16.449219"/></clipPath><clipPath id="M"><path d="M 24.027344 16.449219 L 72.554688 41.273438 L 47.730469 89.800781 L -0.796875 64.976562 Z M 24.027344 16.449219"/></clipPath><clipPath id="N"><path d="M 48 48 L 52 48 L 52 54 L 48 54 Z M 48 48"/></clipPath><clipPath id="O"><path d="M 24.027344 16.449219 L 72.554688 41.273438 L 47.730469 89.800781 L -0.796875 64.976562 Z M 24.027344 16.449219"/></clipPath><clipPath id="P"><path d="M 24.027344 16.449219 L 72.554688 41.273438 L 47.730469 89.800781 L -0.796875 64.976562 Z M 24.027344 16.449219"/></clipPath><clipPath id="Q"><path d="M 50 51 L 55 51 L 55 58 L 50 58 Z M 50 51"/></clipPath><clipPath id="R"><path d="M 24.027344 16.449219 L 72.554688 41.273438 L 47.730469 89.800781 L -0.796875 64.976562 Z M 24.027344 16.449219"/></clipPath><clipPath id="S"><path d="M 24.027344 16.449219 L 72.554688 41.273438 L 47.730469 89.800781 L -0.796875 64.976562 Z M 24.027344 16.449219"/></clipPath><clipPath id="T"><path d="M 54 56 L 58 56 L 58 62 L 54 62 Z M 54 56"/></clipPath><clipPath id="U"><path d="M 24.027344 16.449219 L 72.554688 41.273438 L 47.730469 89.800781 L -0.796875 64.976562 Z M 24.027344 16.449219"/></clipPath><clipPath id="V"><path d="M 24.027344 16.449219 L 72.554688 41.273438 L 47.730469 89.800781 L -0.796875 64.976562 Z M 24.027344 16.449219"/></clipPath><clipPath id="W"><path d="M 6 28 L 62 28 L 62 86 L 6 86 Z M 6 28"/></clipPath><clipPath id="X"><path d="M 24.027344 16.449219 L 72.554688 41.273438 L 47.730469 89.800781 L -0.796875 64.976562 Z M 24.027344 16.449219"/></clipPath><clipPath id="Y"><path d="M 24.027344 16.449219 L 72.554688 41.273438 L 47.730469 89.800781 L -0.796875 64.976562 Z M 24.027344 16.449219"/></clipPath><clipPath id="Z"><path d="M 37 38 L 44 38 L 44 49 L 37 49 Z M 37 38"/></clipPath><clipPath id="aa"><path d="M 24.027344 16.449219 L 72.554688 41.273438 L 47.730469 89.800781 L -0.796875 64.976562 Z M 24.027344 16.449219"/></clipPath><clipPath id="ab"><path d="M 24.027344 16.449219 L 72.554688 41.273438 L 47.730469 89.800781 L -0.796875 64.976562 Z M 24.027344 16.449219"/></clipPath><clipPath id="ac"><path d="M 33 49 L 39 49 L 39 58 L 33 58 Z M 33 49"/></clipPath><clipPath id="ad"><path d="M 24.027344 16.449219 L 72.554688 41.273438 L 47.730469 89.800781 L -0.796875 64.976562 Z M 24.027344 16.449219"/></clipPath><clipPath id="ae"><path d="M 24.027344 16.449219 L 72.554688 41.273438 L 47.730469 89.800781 L -0.796875 64.976562 Z M 24.027344 16.449219"/></clipPath><clipPath id="af"><path d="M 30 58 L 34 58 L 34 63 L 30 63 Z M 30 58"/></clipPath><clipPath id="ag"><path d="M 24.027344 16.449219 L 72.554688 41.273438 L 47.730469 89.800781 L -0.796875 64.976562 Z M 24.027344 16.449219"/></clipPath><clipPath id="ah"><path d="M 24.027344 16.449219 L 72.554688 41.273438 L 47.730469 89.800781 L -0.796875 64.976562 Z M 24.027344 16.449219"/></clipPath></defs><g clip-path="url(#a)"><g clip-path="url(#b)"><g clip-path="url(#c)"><path fill="#FF1616" d="M 25.082031 34.335938 C 23.742188 33.652344 22.101562 34.179688 21.414062 35.519531 L 19.523438 39.21875 L 25.792969 38.929688 L 26.265625 38.003906 C 26.953125 36.664062 26.421875 35.019531 25.082031 34.335938"/></g></g></g><g clip-path="url(#d)"><g clip-path="url(#e)"><g clip-path="url(#f)"><path fill="#FF1616" d="M 57.433594 50.886719 C 58.773438 51.570312 59.304688 53.210938 58.617188 54.550781 L 56.726562 58.25 L 53.292969 52.996094 L 53.765625 52.070312 C 54.449219 50.730469 56.09375 50.199219 57.433594 50.886719"/></g></g></g><g clip-path="url(#g)"><g clip-path="url(#h)"><g clip-path="url(#i)"><path fill="#FFDE59" d="M 24.101562 63.921875 L 9.359375 65.070312 L 7.707031 68.304688 L 23.117188 71.085938 L 24.101562 63.921875"/></g></g></g><g clip-path="url(#j)"><g clip-path="url(#k)"><g clip-path="url(#l)"><path fill="#FFDE59" d="M 34.015625 68.992188 L 41.710938 81.617188 L 40.058594 84.855469 L 28.78125 73.984375 L 34.015625 68.992188"/></g></g></g><g clip-path="url(#m)"><g clip-path="url(#n)"><g clip-path="url(#o)"><path fill="#FFDE59" d="M 31.046875 48.609375 L 10.355469 45.171875 L 13.25 39.507812 L 36.421875 38.097656 L 31.046875 48.609375"/></g></g></g><g clip-path="url(#p)"><g clip-path="url(#q)"><g clip-path="url(#r)"><path fill="#FFDE59" d="M 42.367188 54.402344 L 57.265625 69.167969 L 60.160156 63.503906 L 47.746094 43.890625 L 42.367188 54.402344"/></g></g></g><g clip-path="url(#s)"><g clip-path="url(#t)"><g clip-path="url(#u)"><path fill="#CF2525" d="M 35.75 67.34375 L 25.296875 77.304688 L 22.464844 75.855469 L 24.425781 61.550781 L 37.25 36.480469 C 39.078125 32.90625 44.75 28.070312 47.878906 29.667969 C 51.003906 31.269531 50.402344 38.699219 48.574219 42.269531 L 35.75 67.34375"/></g></g></g><g clip-path="url(#v)"><g clip-path="url(#w)"><g clip-path="url(#x)"><path fill="#FF1616" d="M 38.363281 48.273438 C 37.917969 48.042969 37.738281 47.496094 37.964844 47.050781 L 42.105469 38.960938 C 42.332031 38.515625 42.878906 38.339844 43.328125 38.566406 C 43.773438 38.792969 43.949219 39.34375 43.722656 39.789062 L 39.585938 47.875 C 39.355469 48.320312 38.808594 48.5 38.363281 48.273438"/></g></g></g><g clip-path="url(#y)"><g clip-path="url(#z)"><g clip-path="url(#A)"><path fill="#FF1616" d="M 33.8125 57.167969 C 33.363281 56.941406 33.1875 56.390625 33.414062 55.945312 L 36.3125 50.285156 C 36.539062 49.839844 37.089844 49.660156 37.535156 49.890625 C 37.980469 50.117188 38.15625 50.667969 37.929688 51.113281 L 35.03125 56.773438 C 34.804688 57.21875 34.257812 57.394531 33.8125 57.167969"/></g></g></g><g clip-path="url(#B)"><g clip-path="url(#C)"><g clip-path="url(#D)"><path fill="#FF1616" d="M 31.328125 62.019531 C 30.882812 61.792969 30.707031 61.242188 30.933594 60.796875 L 31.761719 59.179688 C 31.988281 58.734375 32.539062 58.558594 32.984375 58.785156 C 33.429688 59.015625 33.605469 59.5625 33.378906 60.007812 L 32.550781 61.625 C 32.324219 62.070312 31.773438 62.25 31.328125 62.019531"/></g></g></g><g clip-path="url(#E)"><g clip-path="url(#F)"><g clip-path="url(#G)"><path fill="#CF2525" d="M 27.847656 42.894531 C 27.402344 42.664062 27.222656 42.117188 27.453125 41.671875 L 29.105469 38.4375 C 29.335938 37.988281 29.882812 37.8125 30.328125 38.039062 C 30.773438 38.269531 30.953125 38.816406 30.726562 39.261719 L 29.070312 42.5 C 28.84375 42.945312 28.292969 43.121094 27.847656 42.894531"/></g></g></g><g clip-path="url(#H)"><g clip-path="url(#I)"><g clip-path="url(#J)"><path fill="#CF2525" d="M 23.785156 42.855469 C 23.339844 42.628906 23.160156 42.078125 23.390625 41.632812 L 25.042969 38.398438 C 25.273438 37.953125 25.820312 37.773438 26.265625 38.003906 C 26.710938 38.230469 26.890625 38.78125 26.664062 39.226562 L 25.007812 42.460938 C 24.78125 42.90625 24.230469 43.082031 23.785156 42.855469"/></g></g></g><g clip-path="url(#K)"><g clip-path="url(#L)"><g clip-path="url(#M)"><path fill="#CF2525" d="M 17.691406 42.800781 C 17.246094 42.570312 17.066406 42.023438 17.296875 41.578125 L 18.949219 38.34375 C 19.179688 37.898438 19.726562 37.71875 20.171875 37.945312 C 20.617188 38.175781 20.796875 38.722656 20.566406 39.167969 L 18.914062 42.40625 C 18.683594 42.851562 18.136719 43.027344 17.691406 42.800781"/></g></g></g><g clip-path="url(#N)"><g clip-path="url(#O)"><g clip-path="url(#P)"><path fill="#CF2525" d="M 48.875 53.648438 C 48.429688 53.421875 48.253906 52.875 48.480469 52.425781 L 50.136719 49.191406 C 50.363281 48.746094 50.914062 48.570312 51.359375 48.796875 C 51.804688 49.023438 51.980469 49.574219 51.753906 50.019531 L 50.097656 53.253906 C 49.871094 53.699219 49.320312 53.878906 48.875 53.648438"/></g></g></g><g clip-path="url(#Q)"><g clip-path="url(#R)"><g clip-path="url(#S)"><path fill="#CF2525" d="M 51.285156 56.921875 C 50.839844 56.695312 50.660156 56.144531 50.886719 55.699219 L 52.542969 52.464844 C 52.769531 52.019531 53.320312 51.84375 53.765625 52.070312 C 54.210938 52.296875 54.390625 52.847656 54.160156 53.292969 L 52.507812 56.527344 C 52.277344 56.972656 51.730469 57.152344 51.285156 56.921875"/></g></g></g><g clip-path="url(#T)"><g clip-path="url(#U)"><g clip-path="url(#V)"><path fill="#CF2525" d="M 54.894531 61.832031 C 54.449219 61.605469 54.273438 61.054688 54.5 60.609375 L 56.15625 57.375 C 56.382812 56.929688 56.933594 56.75 57.378906 56.980469 C 57.824219 57.207031 58 57.753906 57.773438 58.203125 L 56.117188 61.4375 C 55.890625 61.882812 55.339844 62.058594 54.894531 61.832031"/></g></g></g><g clip-path="url(#W)"><g clip-path="url(#X)"><g clip-path="url(#Y)"><path d="M 57.023438 67.648438 L 43.480469 54.226562 L 47.828125 45.722656 L 50.085938 49.289062 L 48.480469 52.425781 C 48.253906 52.875 48.429688 53.421875 48.875 53.648438 C 49.320312 53.878906 49.871094 53.699219 50.097656 53.253906 L 51.214844 51.070312 L 52.34375 52.855469 L 50.886719 55.699219 C 50.660156 56.144531 50.839844 56.695312 51.285156 56.921875 C 51.730469 57.152344 52.277344 56.972656 52.507812 56.527344 L 53.386719 54.800781 L 55.679688 58.304688 L 54.5 60.609375 C 54.273438 61.054688 54.449219 61.605469 54.894531 61.832031 C 55.339844 62.058594 55.890625 61.882812 56.117188 61.4375 L 56.859375 59.984375 L 59.117188 63.550781 Z M 54.574219 52.484375 C 55.03125 51.59375 56.128906 51.238281 57.019531 51.695312 C 57.910156 52.148438 58.265625 53.246094 57.808594 54.136719 L 56.691406 56.324219 L 54.433594 52.757812 Z M 40.671875 81.65625 L 39.804688 83.351562 L 30.09375 73.984375 L 33.828125 70.429688 Z M 28.152344 73.324219 C 28.152344 73.324219 28.152344 73.324219 28.152344 73.328125 L 25.136719 76.199219 L 23.453125 75.339844 L 24.019531 71.214844 C 24.019531 71.210938 24.019531 71.210938 24.019531 71.210938 L 25.003906 64.046875 C 25.003906 64.042969 25 64.042969 25 64.042969 L 25.304688 61.828125 L 38.058594 36.894531 C 39.730469 33.625 45.007812 29.222656 47.464844 30.476562 C 49.917969 31.734375 49.4375 38.589844 47.765625 41.859375 L 35.007812 66.792969 L 33.390625 68.335938 C 33.390625 68.335938 33.390625 68.332031 33.386719 68.335938 Z M 9.070312 67.628906 L 9.9375 65.933594 L 23.046875 64.917969 L 22.347656 70.023438 Z M 30.539062 47.605469 L 11.730469 44.476562 L 13.824219 40.382812 L 18.039062 40.128906 L 17.296875 41.578125 C 17.066406 42.023438 17.246094 42.570312 17.691406 42.800781 C 18.136719 43.027344 18.683594 42.851562 18.914062 42.40625 L 20.089844 40.101562 L 24.273438 39.910156 L 23.390625 41.632812 C 23.160156 42.078125 23.339844 42.628906 23.785156 42.855469 C 24.230469 43.082031 24.78125 42.90625 25.007812 42.460938 L 26.464844 39.613281 L 28.570312 39.484375 L 27.453125 41.671875 C 27.222656 42.117188 27.402344 42.664062 27.847656 42.894531 C 28.292969 43.121094 28.84375 42.945312 29.070312 42.5 L 30.675781 39.359375 L 34.890625 39.101562 Z M 22.222656 35.933594 C 22.679688 35.042969 23.777344 34.6875 24.667969 35.144531 C 25.558594 35.601562 25.914062 36.699219 25.457031 37.589844 L 25.316406 37.863281 L 21.105469 38.121094 Z M 60.925781 63.019531 L 57.820312 58.105469 L 59.425781 54.964844 C 60.339844 53.179688 59.632812 50.988281 57.847656 50.074219 C 56.285156 49.277344 54.40625 49.722656 53.351562 51.046875 L 48.792969 43.839844 L 49.382812 42.683594 C 51.273438 38.992188 52.09375 30.808594 48.292969 28.859375 C 44.488281 26.914062 38.332031 32.371094 36.441406 36.066406 L 35.851562 37.222656 L 27.339844 37.738281 C 27.796875 36.109375 27.058594 34.328125 25.496094 33.527344 C 23.710938 32.613281 21.519531 33.320312 20.605469 35.105469 L 19 38.246094 L 13.195312 38.605469 C 12.875 38.621094 12.589844 38.8125 12.441406 39.09375 L 9.546875 44.757812 C 9.414062 45.015625 9.414062 45.320312 9.542969 45.582031 C 9.632812 45.753906 9.769531 45.890625 9.941406 45.980469 C 10.023438 46.019531 10.113281 46.050781 10.203125 46.066406 L 29.671875 49.304688 L 23.617188 61.136719 C 23.570312 61.230469 23.539062 61.324219 23.523438 61.429688 L 23.300781 63.074219 L 9.289062 64.164062 C 8.976562 64.1875 8.695312 64.375 8.550781 64.65625 L 6.898438 67.890625 C 6.765625 68.148438 6.765625 68.449219 6.890625 68.710938 C 6.976562 68.886719 7.121094 69.027344 7.292969 69.113281 C 7.371094 69.152344 7.457031 69.183594 7.542969 69.199219 L 22.101562 71.824219 L 21.5625 75.734375 C 21.511719 76.113281 21.707031 76.488281 22.050781 76.664062 L 24.882812 78.113281 C 25.226562 78.289062 25.644531 78.226562 25.921875 77.964844 L 28.777344 75.242188 L 39.425781 85.507812 C 39.492188 85.570312 39.5625 85.621094 39.644531 85.664062 C 39.8125 85.75 40.011719 85.785156 40.203125 85.75 C 40.488281 85.699219 40.734375 85.523438 40.867188 85.265625 L 42.519531 82.03125 C 42.664062 81.75 42.652344 81.414062 42.488281 81.144531 L 35.171875 69.144531 L 36.375 68.003906 C 36.449219 67.929688 36.511719 67.847656 36.558594 67.757812 L 42.609375 55.921875 L 56.628906 69.8125 C 56.695312 69.878906 56.769531 69.933594 56.851562 69.976562 C 57.023438 70.0625 57.21875 70.09375 57.40625 70.066406 C 57.695312 70.015625 57.941406 69.839844 58.074219 69.582031 L 60.96875 63.917969 C 61.117188 63.632812 61.101562 63.292969 60.925781 63.019531"/></g></g></g><g clip-path="url(#Z)"><g clip-path="url(#aa)"><g clip-path="url(#ab)"><path d="M 43.328125 38.566406 C 42.878906 38.339844 42.332031 38.515625 42.105469 38.960938 L 37.964844 47.050781 C 37.738281 47.496094 37.917969 48.042969 38.363281 48.273438 C 38.808594 48.5 39.355469 48.320312 39.585938 47.875 L 43.722656 39.789062 C 43.949219 39.34375 43.773438 38.792969 43.328125 38.566406"/></g></g></g><g clip-path="url(#ac)"><g clip-path="url(#ad)"><g clip-path="url(#ae)"><path d="M 37.535156 49.890625 C 37.089844 49.660156 36.539062 49.839844 36.3125 50.285156 L 33.414062 55.945312 C 33.1875 56.390625 33.363281 56.941406 33.8125 57.167969 C 34.257812 57.394531 34.804688 57.21875 35.03125 56.773438 L 37.929688 51.113281 C 38.15625 50.667969 37.980469 50.117188 37.535156 49.890625"/></g></g></g><g clip-path="url(#af)"><g clip-path="url(#ag)"><g clip-path="url(#ah)"><path d="M 32.984375 58.785156 C 32.539062 58.558594 31.988281 58.734375 31.761719 59.179688 L 30.933594 60.796875 C 30.707031 61.242188 30.882812 61.792969 31.328125 62.019531 C 31.773438 62.25 32.324219 62.070312 32.550781 61.625 L 33.378906 60.007812 C 33.605469 59.5625 33.429688 59.015625 32.984375 58.785156"/></g></g></g><g fill="#171616"><g><g><path d="M 8.359375 0.15625 C 6.953125 0.15625 5.6875 -0.148438 4.5625 -0.765625 C 3.4375 -1.390625 2.550781 -2.242188 1.90625 -3.328125 C 1.269531 -4.410156 0.953125 -5.632812 0.953125 -7 C 0.953125 -8.351562 1.269531 -9.570312 1.90625 -10.65625 C 2.550781 -11.75 3.441406 -12.601562 4.578125 -13.21875 C 5.710938 -13.84375 6.976562 -14.15625 8.375 -14.15625 C 9.46875 -14.15625 10.46875 -13.96875 11.375 -13.59375 C 12.28125 -13.226562 13.050781 -12.6875 13.6875 -11.96875 L 12.390625 -10.71875 C 11.335938 -11.820312 10.023438 -12.375 8.453125 -12.375 C 7.410156 -12.375 6.46875 -12.140625 5.625 -11.671875 C 4.789062 -11.203125 4.132812 -10.554688 3.65625 -9.734375 C 3.1875 -8.921875 2.953125 -8.007812 2.953125 -7 C 2.953125 -5.976562 3.1875 -5.054688 3.65625 -4.234375 C 4.132812 -3.421875 4.789062 -2.78125 5.625 -2.3125 C 6.46875 -1.851562 7.410156 -1.625 8.453125 -1.625 C 10.015625 -1.625 11.328125 -2.179688 12.390625 -3.296875 L 13.6875 -2.03125 C 13.050781 -1.3125 12.273438 -0.765625 11.359375 -0.390625 C 10.453125 -0.0234375 9.453125 0.15625 8.359375 0.15625 Z M 8.359375 0.15625" transform="translate(190.918 84.777)"/></g></g></g><g fill="#171616"><g><g><path d="M 11.453125 0 L 8.4375 -4.296875 C 8.0625 -4.265625 7.765625 -4.25 7.546875 -4.25 L 4.09375 -4.25 L 4.09375 0 L 2.09375 0 L 2.09375 -13.984375 L 7.546875 -13.984375 C 9.359375 -13.984375 10.785156 -13.550781 11.828125 -12.6875 C 12.867188 -11.820312 13.390625 -10.628906 13.390625 -9.109375 C 13.390625 -8.035156 13.125 -7.117188 12.59375 -6.359375 C 12.0625 -5.597656 11.300781 -5.046875 10.3125 -4.703125 L 13.625 0 Z M 7.5 -5.953125 C 8.757812 -5.953125 9.722656 -6.222656 10.390625 -6.765625 C 11.054688 -7.316406 11.390625 -8.097656 11.390625 -9.109375 C 11.390625 -10.117188 11.054688 -10.894531 10.390625 -11.4375 C 9.722656 -11.976562 8.757812 -12.25 7.5 -12.25 L 4.09375 -12.25 L 4.09375 -5.953125 Z M 7.5 -5.953125" transform="translate(205.359 84.777)"/></g></g></g><g fill="#171616"><g><g><path d="M 15.0625 0 L 15.046875 -10.1875 L 10 -1.703125 L 9.078125 -1.703125 L 4.015625 -10.125 L 4.015625 0 L 2.09375 0 L 2.09375 -13.984375 L 3.734375 -13.984375 L 9.578125 -4.15625 L 15.328125 -13.984375 L 16.96875 -13.984375 L 16.984375 0 Z M 15.0625 0" transform="translate(219.88 84.777)"/></g></g></g><g fill="#CF2525"><g><g><path d="M 0.53125 -21.796875 L 0.53125 -20.800781 L 8.90625 0.0625 L 12.765625 0.0625 L 21.171875 -21.015625 L 21.171875 -21.796875 L 15.753906 -21.796875 L 12.144531 -12.703125 L 10.867188 -8.5 L 9.589844 -12.703125 L 5.976562 -21.796875 Z M 0.53125 -21.796875" transform="translate(60.29 56.945)"/></g></g></g><g fill="#CF2525"><g><g><path d="M 0.683594 -20.550781 C 0.683594 -18.714844 2.179688 -17.808594 3.675781 -17.808594 C 5.105469 -17.808594 6.570312 -18.714844 6.570312 -20.550781 C 6.570312 -22.480469 5.074219 -23.414062 3.582031 -23.414062 C 2.148438 -23.414062 0.683594 -22.449219 0.683594 -20.550781 Z M 1.152344 -16.84375 L 6.132812 -16.84375 L 6.132812 0 L 1.152344 0 Z M 1.152344 -16.84375" transform="translate(81.55 56.945)"/></g></g></g><g fill="#CF2525"><g><g><path d="M 17.808594 -8.46875 C 17.808594 -14.230469 13.449219 -17.09375 9.121094 -17.09375 C 4.734375 -17.09375 0.40625 -14.230469 0.40625 -8.46875 C 0.40625 -2.707031 4.734375 0.1875 9.09375 0.1875 C 12.578125 0.1875 16.035156 -1.648438 17.3125 -5.324219 L 11.988281 -5.324219 C 11.269531 -4.546875 10.242188 -4.171875 9.152344 -4.171875 C 7.660156 -4.203125 6.132812 -4.980469 5.542969 -6.539062 L 17.625 -6.539062 C 17.746094 -7.160156 17.808594 -7.785156 17.808594 -8.46875 Z M 12.453125 -10.367188 L 5.730469 -10.367188 C 6.226562 -12.019531 7.566406 -12.828125 9.03125 -12.828125 C 10.617188 -12.828125 11.988281 -12.050781 12.453125 -10.367188 Z M 12.453125 -10.367188" transform="translate(89.893 56.945)"/></g></g></g><g fill="#CF2525"><g><g><path d="M 11.210938 0.03125 L 11.054688 -4.015625 C 10.617188 -3.921875 10.121094 -3.859375 9.652344 -3.859375 C 8.46875 -3.859375 7.378906 -4.328125 7.378906 -5.824219 L 7.378906 -12.453125 L 10.898438 -12.453125 L 10.898438 -16.65625 L 7.378906 -16.65625 L 7.378906 -20.300781 L 2.492188 -19.863281 L 2.492188 -16.65625 L 0.28125 -16.65625 L 0.28125 -12.453125 L 2.492188 -12.453125 L 2.492188 -5.824219 C 2.492188 -1.464844 4.734375 0.28125 8.4375 0.28125 C 9.277344 0.28125 10.210938 0.1875 11.210938 0.03125 Z M 11.210938 0.03125" transform="translate(109.814 56.945)"/></g></g></g><g fill="#CF2525"><g><g><path d="M 0.746094 -20.488281 C 0.746094 -18.558594 2.210938 -17.6875 3.707031 -17.6875 C 5.136719 -17.6875 6.601562 -18.558594 6.601562 -20.488281 C 6.601562 -22.417969 5.105469 -23.382812 3.675781 -23.382812 C 2.210938 -23.382812 0.746094 -22.417969 0.746094 -20.488281 Z M 1.214844 0.621094 L 1.214844 -16.84375 L 6.101562 -16.84375 L 6.101562 0.714844 C 6.101562 4.980469 3.332031 6.945312 -0.25 6.945312 C -0.996094 6.945312 -1.742188 6.851562 -2.554688 6.695312 L -2.367188 2.648438 C -2.023438 2.738281 -1.648438 2.769531 -1.277344 2.769531 C 0.03125 2.769531 1.214844 2.210938 1.214844 0.621094 Z M 1.214844 0.621094" transform="translate(122.732 56.945)"/></g></g></g><g fill="#CF2525"><g><g><path d="M 17.808594 -8.46875 C 17.808594 -14.230469 13.449219 -17.09375 9.121094 -17.09375 C 4.734375 -17.09375 0.40625 -14.230469 0.40625 -8.46875 C 0.40625 -2.707031 4.734375 0.1875 9.09375 0.1875 C 12.578125 0.1875 16.035156 -1.648438 17.3125 -5.324219 L 11.988281 -5.324219 C 11.269531 -4.546875 10.242188 -4.171875 9.152344 -4.171875 C 7.660156 -4.203125 6.132812 -4.980469 5.542969 -6.539062 L 17.625 -6.539062 C 17.746094 -7.160156 17.808594 -7.785156 17.808594 -8.46875 Z M 12.453125 -10.367188 L 5.730469 -10.367188 C 6.226562 -12.019531 7.566406 -12.828125 9.03125 -12.828125 C 10.617188 -12.828125 11.988281 -12.050781 12.453125 -10.367188 Z M 12.453125 -10.367188" transform="translate(131.012 56.945)"/></g></g></g><g fill="#CF2525"><g><g><path d="M 11.210938 0.03125 L 11.054688 -4.015625 C 10.617188 -3.921875 10.121094 -3.859375 9.652344 -3.859375 C 8.46875 -3.859375 7.378906 -4.328125 7.378906 -5.824219 L 7.378906 -12.453125 L 10.898438 -12.453125 L 10.898438 -16.65625 L 7.378906 -16.65625 L 7.378906 -20.300781 L 2.492188 -19.863281 L 2.492188 -16.65625 L 0.28125 -16.65625 L 0.28125 -12.453125 L 2.492188 -12.453125 L 2.492188 -5.824219 C 2.492188 -1.464844 4.734375 0.28125 8.4375 0.28125 C 9.277344 0.28125 10.210938 0.1875 11.210938 0.03125 Z M 11.210938 0.03125" transform="translate(150.933 56.945)"/></g></g></g><g fill="#CF2525"><g><g><path d="M 8.96875 -22.042969 L 0.25 0 L 5.945312 0 L 7.160156 -3.207031 L 14.601562 -3.207031 L 15.816406 0 L 21.828125 0 L 12.765625 -22.042969 Z M 10.898438 -13.265625 L 12.578125 -8.53125 L 12.703125 -8.15625 L 9.09375 -8.15625 L 9.277344 -8.65625 Z M 10.898438 -13.265625" transform="translate(171.664 56.945)"/></g></g></g><g fill="#CF2525"><g><g><path d="M 0.683594 -20.550781 C 0.683594 -18.714844 2.179688 -17.808594 3.675781 -17.808594 C 5.105469 -17.808594 6.570312 -18.714844 6.570312 -20.550781 C 6.570312 -22.480469 5.074219 -23.414062 3.582031 -23.414062 C 2.148438 -23.414062 0.683594 -22.449219 0.683594 -20.550781 Z M 1.152344 -16.84375 L 6.132812 -16.84375 L 6.132812 0 L 1.152344 0 Z M 1.152344 -16.84375" transform="translate(193.453 56.945)"/></g></g></g><g fill="#CF2525"><g><g><path d="M 5.542969 -15.722656 L 5.355469 -16.84375 L 0.933594 -16.84375 L 0.933594 0 L 5.824219 0 L 5.824219 -9.339844 C 5.824219 -11.613281 7.628906 -12.546875 9.402344 -12.578125 C 9.964844 -12.578125 10.554688 -12.484375 11.054688 -12.332031 L 11.117188 -16.9375 C 10.460938 -17.09375 9.808594 -17.1875 9.214844 -17.1875 C 7.847656 -17.1875 6.632812 -16.75 5.542969 -15.722656 Z M 5.542969 -15.722656" transform="translate(201.795 56.945)"/></g></g></g><g fill="#CF2525"><g><g><path d="M 8.96875 -22.042969 L 0.25 0 L 5.945312 0 L 7.160156 -3.207031 L 14.601562 -3.207031 L 15.816406 0 L 21.828125 0 L 12.765625 -22.042969 Z M 10.898438 -13.265625 L 12.578125 -8.53125 L 12.703125 -8.15625 L 9.09375 -8.15625 L 9.277344 -8.65625 Z M 10.898438 -13.265625" transform="translate(222.37 56.945)"/></g></g></g><g fill="#CF2525"><g><g><path d="M 17.375 -7.160156 L 12.515625 -7.160156 C 11.957031 -5.292969 10.429688 -4.421875 8.9375 -4.421875 C 7.066406 -4.421875 5.199219 -5.792969 5.199219 -8.4375 C 5.199219 -11.085938 7.066406 -12.453125 8.9375 -12.453125 C 10.429688 -12.453125 11.957031 -11.550781 12.515625 -9.683594 L 17.375 -9.683594 C 16.71875 -14.632812 12.828125 -17.0625 8.9375 -17.0625 C 4.671875 -17.0625 0.40625 -14.136719 0.40625 -8.4375 C 0.40625 -2.738281 4.671875 0.1875 8.9375 0.1875 C 12.828125 0.1875 16.71875 -2.242188 17.375 -7.160156 Z M 17.375 -7.160156" transform="translate(244.16 56.945)"/></g></g></g><g fill="#CF2525"><g><g><path d="M 8.59375 -17.125 C 3.113281 -17.125 0.4375 -13.265625 0.4375 -8.65625 C 0.4375 -4.015625 3.207031 0.21875 8.53125 0.21875 C 10.152344 0.21875 11.800781 -0.25 12.953125 -1.679688 L 12.953125 0 L 17.839844 0 L 17.839844 -16.84375 L 12.953125 -16.84375 L 12.953125 -15.101562 C 11.863281 -16.503906 10.242188 -17.125 8.59375 -17.125 Z M 9.121094 -4.484375 C 6.632812 -4.484375 5.355469 -6.507812 5.355469 -8.53125 C 5.355469 -10.585938 6.601562 -12.609375 9.121094 -12.609375 C 11.242188 -12.609375 12.953125 -10.773438 12.953125 -8.53125 C 12.953125 -6.289062 11.242188 -4.484375 9.121094 -4.484375 Z M 9.121094 -4.484375" transform="translate(263.272 56.945)"/></g></g></g><g fill="#CF2525"><g><g><path d="M 8.59375 -17.125 C 3.113281 -17.125 0.4375 -13.265625 0.4375 -8.65625 C 0.4375 -4.015625 3.207031 0.21875 8.53125 0.21875 C 10.152344 0.21875 11.800781 -0.25 12.953125 -1.679688 L 12.953125 0 L 17.839844 0 L 17.839844 -21.953125 L 12.953125 -21.953125 L 12.953125 -15.320312 C 11.832031 -16.597656 10.242188 -17.125 8.59375 -17.125 Z M 9.121094 -4.484375 C 6.632812 -4.484375 5.355469 -6.507812 5.355469 -8.53125 C 5.355469 -10.585938 6.601562 -12.609375 9.121094 -12.609375 C 11.242188 -12.609375 12.953125 -10.773438 12.953125 -8.53125 C 12.953125 -6.289062 11.242188 -4.484375 9.121094 -4.484375 Z M 9.121094 -4.484375" transform="translate(283.287 56.945)"/></g></g></g><g fill="#CF2525"><g><g><path d="M 17.808594 -8.46875 C 17.808594 -14.230469 13.449219 -17.09375 9.121094 -17.09375 C 4.734375 -17.09375 0.40625 -14.230469 0.40625 -8.46875 C 0.40625 -2.707031 4.734375 0.1875 9.09375 0.1875 C 12.578125 0.1875 16.035156 -1.648438 17.3125 -5.324219 L 11.988281 -5.324219 C 11.269531 -4.546875 10.242188 -4.171875 9.152344 -4.171875 C 7.660156 -4.203125 6.132812 -4.980469 5.542969 -6.539062 L 17.625 -6.539062 C 17.746094 -7.160156 17.808594 -7.785156 17.808594 -8.46875 Z M 12.453125 -10.367188 L 5.730469 -10.367188 C 6.226562 -12.019531 7.566406 -12.828125 9.03125 -12.828125 C 10.617188 -12.828125 11.988281 -12.050781 12.453125 -10.367188 Z M 12.453125 -10.367188" transform="translate(303.301 56.945)"/></g></g></g><g fill="#CF2525"><g><g><path d="M 6.070312 -15.164062 L 6.070312 -16.84375 L 1.121094 -16.84375 L 1.121094 0 L 6.320312 0 L 6.320312 -9.527344 C 6.320312 -11.394531 7.847656 -12.269531 9.0625 -12.269531 C 10.210938 -12.269531 11.210938 -11.519531 11.210938 -9.464844 L 11.210938 0 L 16.160156 0 L 16.160156 -9.589844 C 16.191406 -11.425781 17.933594 -12.269531 19.148438 -12.269531 C 20.300781 -12.269531 21.296875 -11.519531 21.296875 -9.464844 L 21.296875 0 L 26.25 0 L 26.25 -9.496094 C 26.308594 -15.007812 23.570312 -17.0625 20.238281 -17.0625 C 18.339844 -17.0625 16.097656 -16.347656 15.007812 -14.851562 C 14.199219 -16.160156 12.921875 -17.09375 10.898438 -17.09375 C 9.121094 -17.09375 7.222656 -16.625 6.070312 -15.164062 Z M 6.070312 -15.164062" transform="translate(323.223 56.945)"/></g></g></g><g fill="#CF2525"><g><g><path d="M 16.597656 -16.066406 L 16.597656 -16.84375 L 11.519531 -16.84375 L 9.433594 -11.457031 L 8.1875 -7.191406 L 7.003906 -11.457031 L 4.917969 -16.84375 L -0.1875 -16.84375 L -0.1875 -16.066406 L 5.417969 -1.371094 L 3.238281 4.171875 L 3.238281 4.917969 L 8.3125 4.917969 C 11.054688 -2.085938 13.824219 -9.0625 16.597656 -16.066406 Z M 16.597656 -16.066406" transform="translate(351.673 56.945)"/></g></g></g></svg>